<?xml version="1.0" encoding="UTF-8" standalone="no"?>
<!DOCTYPE svg PUBLIC "-//W3C//DTD SVG 1.1//EN"
 "http://www.w3.org/Graphics/SVG/1.1/DTD/svg11.dtd">
<!-- Generated by graphviz version 2.43.0 (0)
 -->
<!-- Title: DockerDeps Pages: 1 -->
<svg width="591pt" height="590pt"
 viewBox="0.00 0.00 591.00 590.00" xmlns="http://www.w3.org/2000/svg" xmlns:xlink="http://www.w3.org/1999/xlink">
<g id="graph0" class="graph" transform="scale(1 1) rotate(0) translate(4 586)">
<title>DockerDeps</title>
<polygon fill="white" stroke="transparent" points="-4,4 -4,-586 587,-586 587,4 -4,4"/>
<g id="clust1" class="cluster">
<title>clusterDockerfile</title>
<polygon fill="none" stroke="royalblue" points="212,-116 212,-503 416,-503 416,-116 212,-116"/>
<text text-anchor="middle" x="314" y="-487.8" font-family="Times,serif" font-size="14.00">docker/&lt;distro&gt;/Dockerfile</text>
</g>
<g id="clust2" class="cluster">
<title>clusterCache</title>
<polygon fill="none" stroke="royalblue" points="8,-8 8,-83 485,-83 485,-8 8,-8"/>
<text text-anchor="middle" x="246.5" y="-67.8" font-family="Times,serif" font-size="14.00">cache/&lt;distro&gt;/</text>
</g>
<!-- DISTRO_IMG -->
<g id="node1" class="node">
<title>DISTRO_IMG</title>
<path fill="royalblue" stroke="black" d="M301,-577.73C301,-579.53 279.49,-581 253,-581 226.51,-581 205,-579.53 205,-577.73 205,-577.73 205,-548.27 205,-548.27 205,-546.47 226.51,-545 253,-545 279.49,-545 301,-546.47 301,-548.27 301,-548.27 301,-577.73 301,-577.73"/>
<path fill="none" stroke="black" d="M301,-577.73C301,-575.92 279.49,-574.45 253,-574.45 226.51,-574.45 205,-575.92 205,-577.73"/>
<text text-anchor="middle" x="253" y="-559.3" font-family="Times,serif" font-size="14.00">&lt;distro&gt;:latest</text>
</g>
<!-- ENV_IMG -->
<g id="node4" class="node">
<title>ENV_IMG</title>
<path fill="royalblue" stroke="black" d="M400,-467.35C400,-469.99 360.11,-472.13 311,-472.13 261.89,-472.13 222,-469.99 222,-467.35 222,-467.35 222,-424.4 222,-424.4 222,-421.76 261.89,-419.62 311,-419.62 360.11,-419.62 400,-421.76 400,-424.4 400,-424.4 400,-467.35 400,-467.35"/>
<path fill="none" stroke="black" d="M400,-467.35C400,-464.72 360.11,-462.58 311,-462.58 261.89,-462.58 222,-464.72 222,-467.35"/>
<text text-anchor="middle" x="311" y="-449.68" font-family="Times,serif" font-size="14.00">bazel&#45;pybind11:&lt;distro&gt;_env</text>
<text text-anchor="middle" x="311" y="-434.68" font-family="Times,serif" font-size="14.00">env</text>
</g>
<!-- DISTRO_IMG&#45;&gt;ENV_IMG -->
<g id="edge4" class="edge">
<title>DISTRO_IMG&#45;&gt;ENV_IMG</title>
<path fill="none" stroke="black" d="M261.81,-544.51C270.22,-527.82 283.12,-502.21 293.61,-481.4"/>
<polygon fill="black" stroke="black" points="296.85,-482.73 298.23,-472.23 290.6,-479.58 296.85,-482.73"/>
</g>
<!-- PKG -->
<g id="node2" class="node">
<title>PKG</title>
<polygon fill="royalblue" stroke="black" points="419,-582 323,-582 319,-578 319,-544 415,-544 419,-548 419,-582"/>
<polyline fill="none" stroke="black" points="415,-578 319,-578 "/>
<polyline fill="none" stroke="black" points="415,-578 415,-544 "/>
<polyline fill="none" stroke="black" points="415,-578 419,-582 "/>
<text text-anchor="middle" x="369" y="-566.8" font-family="Times,serif" font-size="14.00">packages</text>
<text text-anchor="middle" x="369" y="-551.8" font-family="Times,serif" font-size="14.00">e.g. bazel, g++</text>
</g>
<!-- PKG&#45;&gt;ENV_IMG -->
<g id="edge5" class="edge">
<title>PKG&#45;&gt;ENV_IMG</title>
<path fill="none" stroke="black" stroke-dasharray="5,2" d="M359.81,-543.76C351.39,-527.04 338.7,-501.86 328.37,-481.35"/>
<polygon fill="black" stroke="black" points="331.44,-479.66 323.81,-472.31 325.19,-482.81 331.44,-479.66"/>
<text text-anchor="middle" x="367" y="-514.8" font-family="Times,serif" font-size="14.00">install</text>
</g>
<!-- SRC -->
<g id="node3" class="node">
<title>SRC</title>
<polygon fill="royalblue" stroke="black" points="483.5,-463.88 480.5,-467.88 459.5,-467.88 456.5,-463.88 424.5,-463.88 424.5,-427.88 483.5,-427.88 483.5,-463.88"/>
<text text-anchor="middle" x="454" y="-442.18" font-family="Times,serif" font-size="14.00">git repo</text>
</g>
<!-- DEVEL_IMG -->
<g id="node5" class="node">
<title>DEVEL_IMG</title>
<path fill="royalblue" stroke="black" d="M408,-364.1C408,-366.74 365.87,-368.88 314,-368.88 262.13,-368.88 220,-366.74 220,-364.1 220,-364.1 220,-321.15 220,-321.15 220,-318.51 262.13,-316.37 314,-316.37 365.87,-316.37 408,-318.51 408,-321.15 408,-321.15 408,-364.1 408,-364.1"/>
<path fill="none" stroke="black" d="M408,-364.1C408,-361.47 365.87,-359.33 314,-359.33 262.13,-359.33 220,-361.47 220,-364.1"/>
<text text-anchor="middle" x="314" y="-346.43" font-family="Times,serif" font-size="14.00">bazel&#45;pybind11:&lt;distro&gt;_devel</text>
<text text-anchor="middle" x="314" y="-331.43" font-family="Times,serif" font-size="14.00">devel</text>
</g>
<!-- SRC&#45;&gt;DEVEL_IMG -->
<g id="edge6" class="edge">
<title>SRC&#45;&gt;DEVEL_IMG</title>
<path fill="none" stroke="black" stroke-dasharray="5,2" d="M430.99,-427.8C427.32,-425.1 423.56,-422.34 420,-419.75 399.58,-404.87 376.84,-388.52 357.67,-374.79"/>
<polygon fill="black" stroke="black" points="359.59,-371.85 349.42,-368.88 355.51,-377.55 359.59,-371.85"/>
<text text-anchor="middle" x="406.5" y="-390.55" font-family="Times,serif" font-size="14.00">copy</text>
</g>
<!-- ENV_IMG&#45;&gt;DEVEL_IMG -->
<g id="edge1" class="edge">
<title>ENV_IMG&#45;&gt;DEVEL_IMG</title>
<path fill="none" stroke="black" d="M311.75,-419.59C312.11,-407.38 312.55,-392.54 312.95,-379.22"/>
<polygon fill="black" stroke="black" points="316.45,-379.04 313.25,-368.94 309.46,-378.83 316.45,-379.04"/>
</g>
<!-- ENV_TAR -->
<g id="node8" class="node">
<title>ENV_TAR</title>
<polygon fill="royalblue" stroke="black" points="106.5,-52 15.5,-52 15.5,-16 112.5,-16 112.5,-46 106.5,-52"/>
<polyline fill="none" stroke="black" points="106.5,-52 106.5,-46 "/>
<polyline fill="none" stroke="black" points="112.5,-46 106.5,-46 "/>
<text text-anchor="middle" x="64" y="-30.3" font-family="Times,serif" font-size="14.00">docker_env.tar</text>
</g>
<!-- ENV_IMG&#45;&gt;ENV_TAR -->
<g id="edge7" class="edge">
<title>ENV_IMG&#45;&gt;ENV_TAR</title>
<path fill="none" stroke="red" d="M221.76,-430.97C137.52,-415.24 24,-386.16 24,-343.62 24,-343.62 24,-343.62 24,-149.12 24,-117.53 37.82,-83.64 49.22,-61.07"/>
<polygon fill="red" stroke="red" points="52.36,-62.62 53.91,-52.13 46.16,-59.37 52.36,-62.62"/>
<text text-anchor="middle" x="93.5" y="-249.68" font-family="Times,serif" font-size="14.00">make save_&lt;distro&gt;_env</text>
</g>
<!-- BUILD_IMG -->
<g id="node6" class="node">
<title>BUILD_IMG</title>
<path fill="royalblue" stroke="black" d="M408,-274.85C408,-277.49 366.32,-279.63 315,-279.63 263.68,-279.63 222,-277.49 222,-274.85 222,-274.85 222,-231.9 222,-231.9 222,-229.26 263.68,-227.12 315,-227.12 366.32,-227.12 408,-229.26 408,-231.9 408,-231.9 408,-274.85 408,-274.85"/>
<path fill="none" stroke="black" d="M408,-274.85C408,-272.22 366.32,-270.08 315,-270.08 263.68,-270.08 222,-272.22 222,-274.85"/>
<text text-anchor="middle" x="315" y="-257.18" font-family="Times,serif" font-size="14.00">bazel&#45;pybind11:&lt;distro&gt;_build</text>
<text text-anchor="middle" x="315" y="-242.18" font-family="Times,serif" font-size="14.00">build</text>
</g>
<!-- DEVEL_IMG&#45;&gt;BUILD_IMG -->
<g id="edge2" class="edge">
<title>DEVEL_IMG&#45;&gt;BUILD_IMG</title>
<path fill="none" stroke="black" d="M314.29,-316.39C314.38,-308.07 314.49,-298.66 314.59,-289.72"/>
<polygon fill="black" stroke="black" points="318.1,-289.59 314.71,-279.55 311.1,-289.51 318.1,-289.59"/>
</g>
<!-- DEVEL_TAR -->
<g id="node9" class="node">
<title>DEVEL_TAR</title>
<polygon fill="royalblue" stroke="black" points="231.5,-52 130.5,-52 130.5,-16 237.5,-16 237.5,-46 231.5,-52"/>
<polyline fill="none" stroke="black" points="231.5,-52 231.5,-46 "/>
<polyline fill="none" stroke="black" points="237.5,-46 231.5,-46 "/>
<text text-anchor="middle" x="184" y="-30.3" font-family="Times,serif" font-size="14.00">docker_devel.tar</text>
</g>
<!-- DEVEL_IMG&#45;&gt;DEVEL_TAR -->
<g id="edge8" class="edge">
<title>DEVEL_IMG&#45;&gt;DEVEL_TAR</title>
<path fill="none" stroke="red" d="M258.48,-316.54C242.03,-306.91 225.18,-294.54 213,-279.5 161.63,-216.05 170.77,-111.19 178.72,-62.02"/>
<polygon fill="red" stroke="red" points="182.18,-62.59 180.43,-52.14 175.28,-61.39 182.18,-62.59"/>
<text text-anchor="middle" x="254" y="-198.05" font-family="Times,serif" font-size="14.00">make save_&lt;distro&gt;_devel</text>
</g>
<!-- TEST_IMG -->
<g id="node7" class="node">
<title>TEST_IMG</title>
<path fill="royalblue" stroke="black" d="M400.5,-171.6C400.5,-174.24 360.83,-176.38 312,-176.38 263.17,-176.38 223.5,-174.24 223.5,-171.6 223.5,-171.6 223.5,-128.65 223.5,-128.65 223.5,-126.01 263.17,-123.87 312,-123.87 360.83,-123.87 400.5,-126.01 400.5,-128.65 400.5,-128.65 400.5,-171.6 400.5,-171.6"/>
<path fill="none" stroke="black" d="M400.5,-171.6C400.5,-168.97 360.83,-166.83 312,-166.83 263.17,-166.83 223.5,-168.97 223.5,-171.6"/>
<text text-anchor="middle" x="312" y="-153.93" font-family="Times,serif" font-size="14.00">bazel&#45;pybind11:&lt;distro&gt;_test</text>
<text text-anchor="middle" x="312" y="-138.93" font-family="Times,serif" font-size="14.00">test</text>
</g>
<!-- BUILD_IMG&#45;&gt;TEST_IMG -->
<g id="edge3" class="edge">
<title>BUILD_IMG&#45;&gt;TEST_IMG</title>
<path fill="none" stroke="black" d="M334.25,-227.11C339.66,-217.07 343.28,-205.31 340,-194.25 339.12,-191.26 337.95,-188.29 336.6,-185.39"/>
<polygon fill="black" stroke="black" points="339.59,-183.54 331.77,-176.38 333.42,-186.85 339.59,-183.54"/>
</g>
<!-- BUILD_TAR -->
<g id="node10" class="node">
<title>BUILD_TAR</title>
<polygon fill="royalblue" stroke="black" points="471,-52 371,-52 371,-16 477,-16 477,-46 471,-52"/>
<polyline fill="none" stroke="black" points="471,-52 471,-46 "/>
<polyline fill="none" stroke="black" points="477,-46 471,-46 "/>
<text text-anchor="middle" x="424" y="-30.3" font-family="Times,serif" font-size="14.00">docker_build.tar</text>
</g>
<!-- BUILD_IMG&#45;&gt;BUILD_TAR -->
<g id="edge9" class="edge">
<title>BUILD_IMG&#45;&gt;BUILD_TAR</title>
<path fill="none" stroke="red" d="M355.81,-227.16C374.45,-213.93 395.53,-196.31 410,-176.25 433.17,-144.12 440.17,-130.39 436,-91 434.98,-81.37 433,-70.97 430.94,-61.77"/>
<polygon fill="red" stroke="red" points="434.34,-60.93 428.62,-52.01 427.52,-62.54 434.34,-60.93"/>
<text text-anchor="middle" x="509.5" y="-146.43" font-family="Times,serif" font-size="14.00">make save_&lt;distro&gt;_build</text>
</g>
<!-- TEST_TAR -->
<g id="node11" class="node">
<title>TEST_TAR</title>
<polygon fill="royalblue" stroke="black" points="346.5,-52 255.5,-52 255.5,-16 352.5,-16 352.5,-46 346.5,-52"/>
<polyline fill="none" stroke="black" points="346.5,-52 346.5,-46 "/>
<polyline fill="none" stroke="black" points="352.5,-46 346.5,-46 "/>
<text text-anchor="middle" x="304" y="-30.3" font-family="Times,serif" font-size="14.00">docker_test.tar</text>
</g>
<!-- TEST_IMG&#45;&gt;TEST_TAR -->
<g id="edge10" class="edge">
<title>TEST_IMG&#45;&gt;TEST_TAR</title>
<path fill="none" stroke="red" d="M302.36,-123.91C300.55,-118.11 298.94,-111.91 298,-106 295.71,-91.54 296.82,-75.27 298.68,-61.96"/>
<polygon fill="red" stroke="red" points="302.15,-62.44 300.27,-52.01 295.23,-61.33 302.15,-62.44"/>
<text text-anchor="middle" x="367" y="-94.8" font-family="Times,serif" font-size="14.00">make save_&lt;distro&gt;_test</text>
</g>
</g>
</svg>
