<?xml version="1.0" encoding="UTF-8" standalone="no"?>
<!DOCTYPE svg PUBLIC "-//W3C//DTD SVG 1.1//EN"
 "http://www.w3.org/Graphics/SVG/1.1/DTD/svg11.dtd">
<!-- Generated by graphviz version 2.43.0 (0)
 -->
<!-- Title: DockerDeps Pages: 1 -->
<svg width="1295pt" height="900pt"
 viewBox="0.00 0.00 1295.00 899.75" xmlns="http://www.w3.org/2000/svg" xmlns:xlink="http://www.w3.org/1999/xlink">
<g id="graph0" class="graph" transform="scale(1 1) rotate(0) translate(4 895.75)">
<title>DockerDeps</title>
<polygon fill="white" stroke="transparent" points="-4,4 -4,-895.75 1291,-895.75 1291,4 -4,4"/>
<g id="clust1" class="cluster">
<title>clusterDockerfile</title>
<polygon fill="none" stroke="royalblue" points="610,-116 610,-812.75 1054,-812.75 1054,-116 610,-116"/>
<text text-anchor="middle" x="832" y="-797.55" font-family="Times,serif" font-size="14.00">docker/&lt;distro&gt;/Dockerfile</text>
</g>
<g id="clust2" class="cluster">
<title>clusterCache</title>
<polygon fill="none" stroke="royalblue" points="8,-8 8,-83 1125,-83 1125,-8 8,-8"/>
<text text-anchor="middle" x="566.5" y="-67.8" font-family="Times,serif" font-size="14.00">cache/&lt;distro&gt;/</text>
</g>
<!-- DISTRO_IMG -->
<g id="node1" class="node">
<title>DISTRO_IMG</title>
<path fill="royalblue" stroke="black" d="M861,-887.48C861,-889.28 839.49,-890.75 813,-890.75 786.51,-890.75 765,-889.28 765,-887.48 765,-887.48 765,-858.02 765,-858.02 765,-856.22 786.51,-854.75 813,-854.75 839.49,-854.75 861,-856.22 861,-858.02 861,-858.02 861,-887.48 861,-887.48"/>
<path fill="none" stroke="black" d="M861,-887.48C861,-885.67 839.49,-884.2 813,-884.2 786.51,-884.2 765,-885.67 765,-887.48"/>
<text text-anchor="middle" x="813" y="-869.05" font-family="Times,serif" font-size="14.00">&lt;distro&gt;:latest</text>
</g>
<!-- ENV_IMG -->
<g id="node6" class="node">
<title>ENV_IMG</title>
<path fill="royalblue" stroke="black" d="M1025.5,-777.1C1025.5,-779.74 984.04,-781.88 933,-781.88 881.96,-781.88 840.5,-779.74 840.5,-777.1 840.5,-777.1 840.5,-734.15 840.5,-734.15 840.5,-731.51 881.96,-729.37 933,-729.37 984.04,-729.37 1025.5,-731.51 1025.5,-734.15 1025.5,-734.15 1025.5,-777.1 1025.5,-777.1"/>
<path fill="none" stroke="black" d="M1025.5,-777.1C1025.5,-774.47 984.04,-772.33 933,-772.33 881.96,-772.33 840.5,-774.47 840.5,-777.1"/>
<text text-anchor="middle" x="933" y="-759.42" font-family="Times,serif" font-size="14.00">cmake&#45;pybind11:&lt;distro&gt;_env</text>
<text text-anchor="middle" x="933" y="-744.42" font-family="Times,serif" font-size="14.00">env</text>
</g>
<!-- DISTRO_IMG&#45;&gt;ENV_IMG -->
<g id="edge9" class="edge">
<title>DISTRO_IMG&#45;&gt;ENV_IMG</title>
<path fill="none" stroke="black" d="M830.97,-854.51C848.94,-837.27 877.03,-810.32 899.19,-789.06"/>
<polygon fill="black" stroke="black" points="901.66,-791.54 906.46,-782.09 896.82,-786.49 901.66,-791.54"/>
</g>
<!-- PKG -->
<g id="node2" class="node">
<title>PKG</title>
<polygon fill="royalblue" stroke="black" points="986.5,-891.75 883.5,-891.75 879.5,-887.75 879.5,-853.75 982.5,-853.75 986.5,-857.75 986.5,-891.75"/>
<polyline fill="none" stroke="black" points="982.5,-887.75 879.5,-887.75 "/>
<polyline fill="none" stroke="black" points="982.5,-887.75 982.5,-853.75 "/>
<polyline fill="none" stroke="black" points="982.5,-887.75 986.5,-891.75 "/>
<text text-anchor="middle" x="933" y="-876.55" font-family="Times,serif" font-size="14.00">Build packages</text>
<text text-anchor="middle" x="933" y="-861.55" font-family="Times,serif" font-size="14.00">e.g. cmake, g++</text>
</g>
<!-- PKG&#45;&gt;ENV_IMG -->
<g id="edge10" class="edge">
<title>PKG&#45;&gt;ENV_IMG</title>
<path fill="none" stroke="black" stroke-dasharray="5,2" d="M933,-853.51C933,-837.09 933,-812.51 933,-792.22"/>
<polygon fill="black" stroke="black" points="936.5,-792.06 933,-782.06 929.5,-792.06 936.5,-792.06"/>
<text text-anchor="middle" x="950" y="-824.55" font-family="Times,serif" font-size="14.00">install</text>
</g>
<!-- PYPKG -->
<g id="node3" class="node">
<title>PYPKG</title>
<polygon fill="gold" stroke="black" points="1113,-891.75 1009,-891.75 1005,-887.75 1005,-853.75 1109,-853.75 1113,-857.75 1113,-891.75"/>
<polyline fill="none" stroke="black" points="1109,-887.75 1005,-887.75 "/>
<polyline fill="none" stroke="black" points="1109,-887.75 1109,-853.75 "/>
<polyline fill="none" stroke="black" points="1109,-887.75 1113,-891.75 "/>
<text text-anchor="middle" x="1059" y="-876.55" font-family="Times,serif" font-size="14.00">Python packages</text>
<text text-anchor="middle" x="1059" y="-861.55" font-family="Times,serif" font-size="14.00">e.g. python&#45;dev</text>
</g>
<!-- PYPKG&#45;&gt;ENV_IMG -->
<g id="edge11" class="edge">
<title>PYPKG&#45;&gt;ENV_IMG</title>
<path fill="none" stroke="black" stroke-dasharray="5,2" d="M1039.03,-853.51C1020.08,-836.19 991.18,-809.78 968.33,-788.9"/>
<polygon fill="black" stroke="black" points="970.58,-786.22 960.84,-782.06 965.86,-791.39 970.58,-786.22"/>
<text text-anchor="middle" x="1035" y="-824.55" font-family="Times,serif" font-size="14.00">install</text>
</g>
<!-- SRC -->
<g id="node4" class="node">
<title>SRC</title>
<polygon fill="royalblue" stroke="black" points="601.5,-773.62 598.5,-777.62 577.5,-777.62 574.5,-773.62 542.5,-773.62 542.5,-737.62 601.5,-737.62 601.5,-773.62"/>
<text text-anchor="middle" x="572" y="-751.92" font-family="Times,serif" font-size="14.00">git repo</text>
</g>
<!-- DEVEL_IMG -->
<g id="node7" class="node">
<title>DEVEL_IMG</title>
<path fill="royalblue" stroke="black" d="M812.5,-673.85C812.5,-676.49 768.8,-678.63 715,-678.63 661.2,-678.63 617.5,-676.49 617.5,-673.85 617.5,-673.85 617.5,-630.9 617.5,-630.9 617.5,-628.26 661.2,-626.12 715,-626.12 768.8,-626.12 812.5,-628.26 812.5,-630.9 812.5,-630.9 812.5,-673.85 812.5,-673.85"/>
<path fill="none" stroke="black" d="M812.5,-673.85C812.5,-671.22 768.8,-669.08 715,-669.08 661.2,-669.08 617.5,-671.22 617.5,-673.85"/>
<text text-anchor="middle" x="715" y="-656.17" font-family="Times,serif" font-size="14.00">cmake&#45;pybind11:&lt;distro&gt;_devel</text>
<text text-anchor="middle" x="715" y="-641.17" font-family="Times,serif" font-size="14.00">devel</text>
</g>
<!-- SRC&#45;&gt;DEVEL_IMG -->
<g id="edge12" class="edge">
<title>SRC&#45;&gt;DEVEL_IMG</title>
<path fill="none" stroke="black" stroke-dasharray="5,2" d="M594.98,-737.51C598.66,-734.81 602.42,-732.07 606,-729.5 626.99,-714.42 650.48,-697.96 670.26,-684.22"/>
<polygon fill="black" stroke="black" points="672.27,-687.08 678.5,-678.51 668.28,-681.33 672.27,-687.08"/>
<text text-anchor="middle" x="663.5" y="-700.3" font-family="Times,serif" font-size="14.00">copy</text>
</g>
<!-- SAMPLE -->
<g id="node5" class="node">
<title>SAMPLE</title>
<polygon fill="royalblue" stroke="black" points="1120,-477.88 1117,-481.88 1096,-481.88 1093,-477.88 1064,-477.88 1064,-441.88 1120,-441.88 1120,-477.88"/>
<text text-anchor="middle" x="1092" y="-456.18" font-family="Times,serif" font-size="14.00">sample</text>
</g>
<!-- INSTALL_DEVEL_IMG -->
<g id="node11" class="node">
<title>INSTALL_DEVEL_IMG</title>
<path fill="royalblue" stroke="black" d="M1045.5,-378.1C1045.5,-380.74 992.83,-382.88 928,-382.88 863.17,-382.88 810.5,-380.74 810.5,-378.1 810.5,-378.1 810.5,-335.15 810.5,-335.15 810.5,-332.51 863.17,-330.37 928,-330.37 992.83,-330.37 1045.5,-332.51 1045.5,-335.15 1045.5,-335.15 1045.5,-378.1 1045.5,-378.1"/>
<path fill="none" stroke="black" d="M1045.5,-378.1C1045.5,-375.47 992.83,-373.33 928,-373.33 863.17,-373.33 810.5,-375.47 810.5,-378.1"/>
<text text-anchor="middle" x="928" y="-360.43" font-family="Times,serif" font-size="14.00">cmake&#45;pybind11:&lt;distro&gt;_install_devel</text>
<text text-anchor="middle" x="928" y="-345.43" font-family="Times,serif" font-size="14.00">install_devel</text>
</g>
<!-- SAMPLE&#45;&gt;INSTALL_DEVEL_IMG -->
<g id="edge13" class="edge">
<title>SAMPLE&#45;&gt;INSTALL_DEVEL_IMG</title>
<path fill="none" stroke="black" stroke-dasharray="5,2" d="M1069.56,-441.77C1065.75,-439.02 1061.8,-436.26 1058,-433.75 1033.8,-417.79 1006.19,-401.38 982.65,-387.9"/>
<polygon fill="black" stroke="black" points="984.27,-384.79 973.85,-382.88 980.8,-390.88 984.27,-384.79"/>
<text text-anchor="middle" x="1039.5" y="-404.55" font-family="Times,serif" font-size="14.00">copy</text>
</g>
<!-- ENV_IMG&#45;&gt;DEVEL_IMG -->
<g id="edge1" class="edge">
<title>ENV_IMG&#45;&gt;DEVEL_IMG</title>
<path fill="none" stroke="black" d="M878.83,-729.47C848.42,-715.34 810.3,-697.64 778.49,-682.86"/>
<polygon fill="black" stroke="black" points="779.81,-679.62 769.27,-678.58 776.86,-685.97 779.81,-679.62"/>
</g>
<!-- INSTALL_ENV_IMG -->
<g id="node10" class="node">
<title>INSTALL_ENV_IMG</title>
<path fill="royalblue" stroke="black" d="M1045.5,-481.35C1045.5,-483.99 995.08,-486.13 933,-486.13 870.92,-486.13 820.5,-483.99 820.5,-481.35 820.5,-481.35 820.5,-438.4 820.5,-438.4 820.5,-435.76 870.92,-433.62 933,-433.62 995.08,-433.62 1045.5,-435.76 1045.5,-438.4 1045.5,-438.4 1045.5,-481.35 1045.5,-481.35"/>
<path fill="none" stroke="black" d="M1045.5,-481.35C1045.5,-478.72 995.08,-476.58 933,-476.58 870.92,-476.58 820.5,-478.72 820.5,-481.35"/>
<text text-anchor="middle" x="933" y="-463.68" font-family="Times,serif" font-size="14.00">cmake&#45;pybind11:&lt;distro&gt;_install_env</text>
<text text-anchor="middle" x="933" y="-448.68" font-family="Times,serif" font-size="14.00">install_env</text>
</g>
<!-- ENV_IMG&#45;&gt;INSTALL_ENV_IMG -->
<g id="edge4" class="edge">
<title>ENV_IMG&#45;&gt;INSTALL_ENV_IMG</title>
<path fill="none" stroke="black" d="M933,-729.33C933,-676.94 933,-556.49 933,-496.37"/>
<polygon fill="black" stroke="black" points="936.5,-496.22 933,-486.22 929.5,-496.22 936.5,-496.22"/>
</g>
<!-- ENV_TAR -->
<g id="node14" class="node">
<title>ENV_TAR</title>
<polygon fill="royalblue" stroke="black" points="1111.5,-52 1020.5,-52 1020.5,-16 1117.5,-16 1117.5,-46 1111.5,-52"/>
<polyline fill="none" stroke="black" points="1111.5,-52 1111.5,-46 "/>
<polyline fill="none" stroke="black" points="1117.5,-46 1111.5,-46 "/>
<text text-anchor="middle" x="1069" y="-30.3" font-family="Times,serif" font-size="14.00">docker_env.tar</text>
</g>
<!-- ENV_IMG&#45;&gt;ENV_TAR -->
<g id="edge14" class="edge">
<title>ENV_IMG&#45;&gt;ENV_TAR</title>
<path fill="none" stroke="red" d="M1025.74,-746.62C1083.93,-735.91 1148,-711.03 1148,-653.38 1148,-653.38 1148,-653.38 1148,-149.12 1148,-113.13 1121.1,-80.28 1098.69,-59.16"/>
<polygon fill="red" stroke="red" points="1100.77,-56.32 1091.01,-52.2 1096.07,-61.51 1100.77,-56.32"/>
<text text-anchor="middle" x="1217.5" y="-404.55" font-family="Times,serif" font-size="14.00">make save_&lt;distro&gt;_env</text>
</g>
<!-- BUILD_IMG -->
<g id="node8" class="node">
<title>BUILD_IMG</title>
<path fill="royalblue" stroke="black" d="M812,-584.6C812,-587.24 768.52,-589.38 715,-589.38 661.48,-589.38 618,-587.24 618,-584.6 618,-584.6 618,-541.65 618,-541.65 618,-539.01 661.48,-536.87 715,-536.87 768.52,-536.87 812,-539.01 812,-541.65 812,-541.65 812,-584.6 812,-584.6"/>
<path fill="none" stroke="black" d="M812,-584.6C812,-581.97 768.52,-579.83 715,-579.83 661.48,-579.83 618,-581.97 618,-584.6"/>
<text text-anchor="middle" x="715" y="-566.92" font-family="Times,serif" font-size="14.00">cmake&#45;pybind11:&lt;distro&gt;_build</text>
<text text-anchor="middle" x="715" y="-551.92" font-family="Times,serif" font-size="14.00">build</text>
</g>
<!-- DEVEL_IMG&#45;&gt;BUILD_IMG -->
<g id="edge2" class="edge">
<title>DEVEL_IMG&#45;&gt;BUILD_IMG</title>
<path fill="none" stroke="black" d="M715,-626.14C715,-617.82 715,-608.41 715,-599.47"/>
<polygon fill="black" stroke="black" points="718.5,-599.3 715,-589.3 711.5,-599.3 718.5,-599.3"/>
</g>
<!-- DEVEL_TAR -->
<g id="node15" class="node">
<title>DEVEL_TAR</title>
<polygon fill="royalblue" stroke="black" points="116.5,-52 15.5,-52 15.5,-16 122.5,-16 122.5,-46 116.5,-52"/>
<polyline fill="none" stroke="black" points="116.5,-52 116.5,-46 "/>
<polyline fill="none" stroke="black" points="122.5,-46 116.5,-46 "/>
<text text-anchor="middle" x="69" y="-30.3" font-family="Times,serif" font-size="14.00">docker_devel.tar</text>
</g>
<!-- DEVEL_IMG&#45;&gt;DEVEL_TAR -->
<g id="edge15" class="edge">
<title>DEVEL_IMG&#45;&gt;DEVEL_TAR</title>
<path fill="none" stroke="red" d="M617.35,-649.07C425.53,-643.23 18,-623.8 18,-564.12 18,-564.12 18,-564.12 18,-149.12 18,-116.51 35.58,-82.85 50.09,-60.62"/>
<polygon fill="red" stroke="red" points="53.15,-62.36 55.87,-52.12 47.36,-58.43 53.15,-62.36"/>
<text text-anchor="middle" x="92" y="-352.93" font-family="Times,serif" font-size="14.00">make save_&lt;distro&gt;_devel</text>
</g>
<!-- TEST_IMG -->
<g id="node9" class="node">
<title>TEST_IMG</title>
<path fill="royalblue" stroke="black" d="M802.5,-481.35C802.5,-483.99 761.04,-486.13 710,-486.13 658.96,-486.13 617.5,-483.99 617.5,-481.35 617.5,-481.35 617.5,-438.4 617.5,-438.4 617.5,-435.76 658.96,-433.62 710,-433.62 761.04,-433.62 802.5,-435.76 802.5,-438.4 802.5,-438.4 802.5,-481.35 802.5,-481.35"/>
<path fill="none" stroke="black" d="M802.5,-481.35C802.5,-478.72 761.04,-476.58 710,-476.58 658.96,-476.58 617.5,-478.72 617.5,-481.35"/>
<text text-anchor="middle" x="710" y="-463.68" font-family="Times,serif" font-size="14.00">cmake&#45;pybind11:&lt;distro&gt;_test</text>
<text text-anchor="middle" x="710" y="-448.68" font-family="Times,serif" font-size="14.00">test</text>
</g>
<!-- BUILD_IMG&#45;&gt;TEST_IMG -->
<g id="edge3" class="edge">
<title>BUILD_IMG&#45;&gt;TEST_IMG</title>
<path fill="none" stroke="black" d="M713.75,-536.84C713.15,-524.63 712.42,-509.79 711.76,-496.47"/>
<polygon fill="black" stroke="black" points="715.24,-496.01 711.25,-486.19 708.25,-496.35 715.24,-496.01"/>
</g>
<!-- BUILD_IMG&#45;&gt;INSTALL_ENV_IMG -->
<g id="edge5" class="edge">
<title>BUILD_IMG&#45;&gt;INSTALL_ENV_IMG</title>
<path fill="none" stroke="black" stroke-dasharray="5,2" d="M769.17,-536.97C799.58,-522.84 837.7,-505.14 869.51,-490.36"/>
<polygon fill="black" stroke="black" points="871.14,-493.47 878.73,-486.08 868.19,-487.12 871.14,-493.47"/>
<text text-anchor="middle" x="869" y="-507.8" font-family="Times,serif" font-size="14.00">copy install</text>
</g>
<!-- BUILD_TAR -->
<g id="node16" class="node">
<title>BUILD_TAR</title>
<polygon fill="royalblue" stroke="black" points="241,-52 141,-52 141,-16 247,-16 247,-46 241,-52"/>
<polyline fill="none" stroke="black" points="241,-52 241,-46 "/>
<polyline fill="none" stroke="black" points="247,-46 241,-46 "/>
<text text-anchor="middle" x="194" y="-30.3" font-family="Times,serif" font-size="14.00">docker_build.tar</text>
</g>
<!-- BUILD_IMG&#45;&gt;BUILD_TAR -->
<g id="edge16" class="edge">
<title>BUILD_IMG&#45;&gt;BUILD_TAR</title>
<path fill="none" stroke="red" d="M617.92,-562.76C467.19,-561.09 194,-546.28 194,-460.88 194,-460.88 194,-460.88 194,-149.12 194,-119.36 194,-85.24 194,-62.11"/>
<polygon fill="red" stroke="red" points="197.5,-62.01 194,-52.01 190.5,-62.02 197.5,-62.01"/>
<text text-anchor="middle" x="267.5" y="-301.3" font-family="Times,serif" font-size="14.00">make save_&lt;distro&gt;_build</text>
</g>
<!-- TEST_TAR -->
<g id="node17" class="node">
<title>TEST_TAR</title>
<polygon fill="royalblue" stroke="black" points="356.5,-52 265.5,-52 265.5,-16 362.5,-16 362.5,-46 356.5,-52"/>
<polyline fill="none" stroke="black" points="356.5,-52 356.5,-46 "/>
<polyline fill="none" stroke="black" points="362.5,-46 356.5,-46 "/>
<text text-anchor="middle" x="314" y="-30.3" font-family="Times,serif" font-size="14.00">docker_test.tar</text>
</g>
<!-- TEST_IMG&#45;&gt;TEST_TAR -->
<g id="edge17" class="edge">
<title>TEST_IMG&#45;&gt;TEST_TAR</title>
<path fill="none" stroke="red" d="M617.39,-451.62C578,-445.73 532.59,-435.05 495,-415.75 416.05,-375.21 390.07,-358.18 349,-279.5 311.63,-207.91 310.3,-109.33 312.21,-62.21"/>
<polygon fill="red" stroke="red" points="315.71,-62.34 312.7,-52.18 308.72,-61.99 315.71,-62.34"/>
<text text-anchor="middle" x="418" y="-249.68" font-family="Times,serif" font-size="14.00">make save_&lt;distro&gt;_test</text>
</g>
<!-- INSTALL_ENV_IMG&#45;&gt;INSTALL_DEVEL_IMG -->
<g id="edge6" class="edge">
<title>INSTALL_ENV_IMG&#45;&gt;INSTALL_DEVEL_IMG</title>
<path fill="none" stroke="black" d="M931.75,-433.59C931.15,-421.38 930.42,-406.54 929.76,-393.22"/>
<polygon fill="black" stroke="black" points="933.24,-392.76 929.25,-382.94 926.25,-393.1 933.24,-392.76"/>
</g>
<!-- INSTALL_ENV_TAR -->
<g id="node18" class="node">
<title>INSTALL_ENV_TAR</title>
<polygon fill="royalblue" stroke="black" points="511.5,-52 380.5,-52 380.5,-16 517.5,-16 517.5,-46 511.5,-52"/>
<polyline fill="none" stroke="black" points="511.5,-52 511.5,-46 "/>
<polyline fill="none" stroke="black" points="517.5,-46 511.5,-46 "/>
<text text-anchor="middle" x="449" y="-30.3" font-family="Times,serif" font-size="14.00">docker_install_env.tar</text>
</g>
<!-- INSTALL_ENV_IMG&#45;&gt;INSTALL_ENV_TAR -->
<g id="edge18" class="edge">
<title>INSTALL_ENV_IMG&#45;&gt;INSTALL_ENV_TAR</title>
<path fill="none" stroke="red" d="M824.36,-435.6C698.73,-408.3 509,-365.73 509,-357.62 509,-357.62 509,-357.62 509,-149.12 509,-115.38 488.2,-81.81 471.09,-59.9"/>
<polygon fill="red" stroke="red" points="473.78,-57.66 464.76,-52.1 468.34,-62.07 473.78,-57.66"/>
<text text-anchor="middle" x="598" y="-249.68" font-family="Times,serif" font-size="14.00">make save_&lt;distro&gt;_install_env</text>
</g>
<!-- INSTALL_BUILD_IMG -->
<g id="node12" class="node">
<title>INSTALL_BUILD_IMG</title>
<path fill="royalblue" stroke="black" d="M1044.5,-274.85C1044.5,-277.49 992.28,-279.63 928,-279.63 863.72,-279.63 811.5,-277.49 811.5,-274.85 811.5,-274.85 811.5,-231.9 811.5,-231.9 811.5,-229.26 863.72,-227.12 928,-227.12 992.28,-227.12 1044.5,-229.26 1044.5,-231.9 1044.5,-231.9 1044.5,-274.85 1044.5,-274.85"/>
<path fill="none" stroke="black" d="M1044.5,-274.85C1044.5,-272.22 992.28,-270.08 928,-270.08 863.72,-270.08 811.5,-272.22 811.5,-274.85"/>
<text text-anchor="middle" x="928" y="-257.18" font-family="Times,serif" font-size="14.00">cmake&#45;pybind11:&lt;distro&gt;_install_build</text>
<text text-anchor="middle" x="928" y="-242.18" font-family="Times,serif" font-size="14.00">install_build</text>
</g>
<!-- INSTALL_DEVEL_IMG&#45;&gt;INSTALL_BUILD_IMG -->
<g id="edge7" class="edge">
<title>INSTALL_DEVEL_IMG&#45;&gt;INSTALL_BUILD_IMG</title>
<path fill="none" stroke="black" d="M928,-330.34C928,-318.13 928,-303.29 928,-289.97"/>
<polygon fill="black" stroke="black" points="931.5,-289.69 928,-279.69 924.5,-289.69 931.5,-289.69"/>
</g>
<!-- INSTALL_DEVEL_TAR -->
<g id="node19" class="node">
<title>INSTALL_DEVEL_TAR</title>
<polygon fill="royalblue" stroke="black" points="676.5,-52 535.5,-52 535.5,-16 682.5,-16 682.5,-46 676.5,-52"/>
<polyline fill="none" stroke="black" points="676.5,-52 676.5,-46 "/>
<polyline fill="none" stroke="black" points="682.5,-46 676.5,-46 "/>
<text text-anchor="middle" x="609" y="-30.3" font-family="Times,serif" font-size="14.00">docker_install_devel.tar</text>
</g>
<!-- INSTALL_DEVEL_IMG&#45;&gt;INSTALL_DEVEL_TAR -->
<g id="edge19" class="edge">
<title>INSTALL_DEVEL_IMG&#45;&gt;INSTALL_DEVEL_TAR</title>
<path fill="none" stroke="red" d="M885.45,-330.23C828.55,-296.68 730.3,-240.31 691,-227.25 664.79,-218.54 586.06,-230.15 568,-209.25 531.47,-166.98 566.46,-98.15 590.54,-60.91"/>
<polygon fill="red" stroke="red" points="593.74,-62.42 596.38,-52.16 587.92,-58.53 593.74,-62.42"/>
<text text-anchor="middle" x="662" y="-198.05" font-family="Times,serif" font-size="14.00">make save_&lt;distro&gt;_install_devel</text>
</g>
<!-- INSTALL_TEST_IMG -->
<g id="node13" class="node">
<title>INSTALL_TEST_IMG</title>
<path fill="royalblue" stroke="black" d="M1046,-171.6C1046,-174.24 995.8,-176.38 934,-176.38 872.2,-176.38 822,-174.24 822,-171.6 822,-171.6 822,-128.65 822,-128.65 822,-126.01 872.2,-123.87 934,-123.87 995.8,-123.87 1046,-126.01 1046,-128.65 1046,-128.65 1046,-171.6 1046,-171.6"/>
<path fill="none" stroke="black" d="M1046,-171.6C1046,-168.97 995.8,-166.83 934,-166.83 872.2,-166.83 822,-168.97 822,-171.6"/>
<text text-anchor="middle" x="934" y="-153.93" font-family="Times,serif" font-size="14.00">cmake&#45;pybind11:&lt;distro&gt;_install_test</text>
<text text-anchor="middle" x="934" y="-138.93" font-family="Times,serif" font-size="14.00">install_test</text>
</g>
<!-- INSTALL_BUILD_IMG&#45;&gt;INSTALL_TEST_IMG -->
<g id="edge8" class="edge">
<title>INSTALL_BUILD_IMG&#45;&gt;INSTALL_TEST_IMG</title>
<path fill="none" stroke="black" d="M929.5,-227.09C930.22,-214.88 931.1,-200.04 931.89,-186.72"/>
<polygon fill="black" stroke="black" points="935.4,-186.63 932.5,-176.44 928.41,-186.22 935.4,-186.63"/>
</g>
<!-- INSTALL_BUILD_TAR -->
<g id="node20" class="node">
<title>INSTALL_BUILD_TAR</title>
<polygon fill="royalblue" stroke="black" points="841,-52 701,-52 701,-16 847,-16 847,-46 841,-52"/>
<polyline fill="none" stroke="black" points="841,-52 841,-46 "/>
<polyline fill="none" stroke="black" points="847,-46 841,-46 "/>
<text text-anchor="middle" x="774" y="-30.3" font-family="Times,serif" font-size="14.00">docker_install_build.tar</text>
</g>
<!-- INSTALL_BUILD_IMG&#45;&gt;INSTALL_BUILD_TAR -->
<g id="edge20" class="edge">
<title>INSTALL_BUILD_IMG&#45;&gt;INSTALL_BUILD_TAR</title>
<path fill="none" stroke="red" d="M864.67,-227.11C833.57,-215.57 795.28,-202.63 760,-194.25 730.77,-187.3 645.78,-198.87 626,-176.25 608.37,-156.09 611.92,-138.78 626,-116 643.24,-88.1 663.17,-98.63 692,-83 706.87,-74.94 722.99,-65.64 736.96,-57.38"/>
<polygon fill="red" stroke="red" points="738.99,-60.24 745.8,-52.13 735.42,-54.22 738.99,-60.24"/>
<text text-anchor="middle" x="719.5" y="-146.43" font-family="Times,serif" font-size="14.00">make save_&lt;distro&gt;_install_build</text>
</g>
<!-- INSTALL_TEST_TAR -->
<g id="node21" class="node">
<title>INSTALL_TEST_TAR</title>
<polygon fill="royalblue" stroke="black" points="996.5,-52 865.5,-52 865.5,-16 1002.5,-16 1002.5,-46 996.5,-52"/>
<polyline fill="none" stroke="black" points="996.5,-52 996.5,-46 "/>
<polyline fill="none" stroke="black" points="1002.5,-46 996.5,-46 "/>
<text text-anchor="middle" x="934" y="-30.3" font-family="Times,serif" font-size="14.00">docker_install_test.tar</text>
</g>
<!-- INSTALL_TEST_IMG&#45;&gt;INSTALL_TEST_TAR -->
<g id="edge21" class="edge">
<title>INSTALL_TEST_IMG&#45;&gt;INSTALL_TEST_TAR</title>
<path fill="none" stroke="red" d="M934,-123.8C934,-105.57 934,-81.01 934,-62.34"/>
<polygon fill="red" stroke="red" points="937.5,-62.12 934,-52.12 930.5,-62.12 937.5,-62.12"/>
<text text-anchor="middle" x="1023" y="-94.8" font-family="Times,serif" font-size="14.00">make save_&lt;distro&gt;_install_test</text>
</g>
</g>
</svg>
